<?xml version="1.0" encoding="UTF-8" standalone="no"?>
<!DOCTYPE svg PUBLIC "-//W3C//DTD SVG 1.1//EN"
 "http://www.w3.org/Graphics/SVG/1.1/DTD/svg11.dtd">
<!-- Generated by graphviz version 2.43.0 (0)
 -->
<!-- Title: chain_simple Pages: 1 -->
<svg width="271pt" height="317pt"
 viewBox="0.00 0.00 271.00 317.00" xmlns="http://www.w3.org/2000/svg" xmlns:xlink="http://www.w3.org/1999/xlink">
<g id="graph0" class="graph" transform="scale(1 1) rotate(0) translate(4 313)">
<title>chain_simple</title>
<polygon fill="transparent" stroke="transparent" points="-4,4 -4,-313 267,-313 267,4 -4,4"/>
<text text-anchor="middle" x="131.5" y="-7.8" font-family="Times,serif" font-size="14.00">Order of (r1, [(r2, r3), (r4, r5)], r6)</text>
<g id="clust1" class="cluster">
<title>cluster_1</title>
<polygon fill="transparent" stroke="black" points="49.5,-79 49.5,-265 213.5,-265 213.5,-79 49.5,-79"/>
<text text-anchor="middle" x="131.5" y="-249.8" font-family="Times,serif" font-size="14.00">[(r2, r3), (r4, r5)]</text>
</g>
<g id="clust2" class="cluster">
<title>cluster_11</title>
<polygon fill="transparent" stroke="black" points="135.5,-87 135.5,-234 205.5,-234 205.5,-87 135.5,-87"/>
<text text-anchor="middle" x="170.5" y="-218.8" font-family="Times,serif" font-size="14.00">(r2, r3)</text>
</g>
<g id="clust3" class="cluster">
<title>cluster_12</title>
<polygon fill="transparent" stroke="black" points="57.5,-87 57.5,-234 127.5,-234 127.5,-87 57.5,-87"/>
<text text-anchor="middle" x="92.5" y="-218.8" font-family="Times,serif" font-size="14.00">(r4, r5)</text>
</g>
<!-- r2 -->
<g id="node1" class="node">
<title>r2</title>
<ellipse fill="none" stroke="black" cx="170.5" cy="-185" rx="27" ry="18"/>
<text text-anchor="middle" x="170.5" y="-181.3" font-family="Times,serif" font-size="14.00">r2</text>
</g>
<!-- r3 -->
<g id="node2" class="node">
<title>r3</title>
<ellipse fill="none" stroke="black" cx="170.5" cy="-113" rx="27" ry="18"/>
<text text-anchor="middle" x="170.5" y="-109.3" font-family="Times,serif" font-size="14.00">r3</text>
</g>
<!-- r2&#45;&gt;r3 -->
<g id="edge1" class="edge">
<title>r2&#45;&gt;r3</title>
<path fill="none" stroke="black" d="M170.5,-166.7C170.5,-158.98 170.5,-149.71 170.5,-141.11"/>
<polygon fill="black" stroke="black" points="174,-141.1 170.5,-131.1 167,-141.1 174,-141.1"/>
</g>
<!-- r4 -->
<g id="node3" class="node">
<title>r4</title>
<ellipse fill="none" stroke="black" cx="92.5" cy="-185" rx="27" ry="18"/>
<text text-anchor="middle" x="92.5" y="-181.3" font-family="Times,serif" font-size="14.00">r4</text>
</g>
<!-- r5 -->
<g id="node4" class="node">
<title>r5</title>
<ellipse fill="none" stroke="black" cx="92.5" cy="-113" rx="27" ry="18"/>
<text text-anchor="middle" x="92.5" y="-109.3" font-family="Times,serif" font-size="14.00">r5</text>
</g>
<!-- r4&#45;&gt;r5 -->
<g id="edge2" class="edge">
<title>r4&#45;&gt;r5</title>
<path fill="none" stroke="black" d="M92.5,-166.7C92.5,-158.98 92.5,-149.71 92.5,-141.11"/>
<polygon fill="black" stroke="black" points="96,-141.1 92.5,-131.1 89,-141.1 96,-141.1"/>
</g>
<!-- r6 -->
<g id="node6" class="node">
<title>r6</title>
<ellipse fill="none" stroke="black" cx="92.5" cy="-41" rx="27" ry="18"/>
<text text-anchor="middle" x="92.5" y="-37.3" font-family="Times,serif" font-size="14.00">r6</text>
</g>
<!-- r5&#45;&gt;r6 -->
<g id="edge4" class="edge">
<title>r5&#45;&gt;r6</title>
<path fill="none" stroke="black" d="M92.5,-79C92.5,-75.69 92.5,-72.35 92.5,-69.11"/>
<polygon fill="black" stroke="black" points="96,-69.1 92.5,-59.1 89,-69.1 96,-69.1"/>
</g>
<!-- r1 -->
<g id="node5" class="node">
<title>r1</title>
<ellipse fill="none" stroke="black" cx="170.5" cy="-291" rx="27" ry="18"/>
<text text-anchor="middle" x="170.5" y="-287.3" font-family="Times,serif" font-size="14.00">r1</text>
</g>
<!-- r1&#45;&gt;r2 -->
<g id="edge3" class="edge">
<title>r1&#45;&gt;r2</title>
<path fill="none" stroke="black" d="M170.5,-272.83C170.5,-272.67 170.5,-272.52 170.5,-272.37"/>
<polygon fill="black" stroke="black" points="174,-275 170.5,-265 167,-275 174,-275"/>
</g>
</g>
</svg>
